<svg id="Capa_1" enable-background="new 0 0 512 512" height="512" viewBox="0 0 512 512" width="512" xmlns="http://www.w3.org/2000/svg"><g><circle cx="256" cy="256" fill="#92ccf7" r="256"/><path d="m312.424 249.097-68.782-68.782-160.271 160.272 171.398 171.397c.411.002.82.016 1.232.016 141.385 0 256-114.615 256-256 0-6.27-.236-12.484-.68-18.641l-93.579-93.579z" fill="#6cb1f8"/><path d="m300.98 105.824-22.964 23.297-29.245 14.657-4.922 32.334-15.017 29.051 15.017 29.052 4.922 32.334 29.245 14.657 22.964 23.297 32.277-5.357 29.392-93.982-29.392-93.983z" fill="#fa0"/><path d="m388.498 281.206 29.245-14.657 4.922-32.334 15.017-29.052-15.017-29.051-4.922-32.334-29.245-14.657-22.965-23.297-32.276 5.357v187.965l32.276 5.357z" fill="#ff9500"/><path d="m260.159 205.163c0 40.371 32.727 73.098 73.098 73.098l21.241-73.098-21.241-73.098c-40.371.001-73.098 32.728-73.098 73.098z" fill="#f9cd16"/><path d="m406.354 205.163c0-40.371-32.727-73.098-73.098-73.098v146.195c40.371.001 73.098-32.726 73.098-73.097z" fill="#fa0"/><path d="m62.422 289.804c0-37.769 29.071-68.745 66.058-71.78-.39-3.034-.592-6.126-.592-9.266 0-39.78 32.248-72.028 72.028-72.028 10.286 0 20.064 2.161 28.915 6.046l17.61 109.529-17.61 109.529h-94.381c-39.779-.002-72.028-32.25-72.028-72.03z" fill="#fff"/><path d="m271.179 198.244c5.062-1.569 10.442-2.416 16.019-2.416 29.835 0 54.021 24.186 54.021 54.021 0 1.328-.065 2.64-.159 3.944.053 0 .106-.004.159-.004 29.835 0 54.021 24.186 54.021 54.021s-24.186 54.021-54.021 54.021h-112.387v-219.057c22.307 9.791 38.703 30.558 42.347 55.47z" fill="#e9edf5"/></g></svg>