<svg id="Capa_1" enable-background="new 0 0 512 512" height="512" viewBox="0 0 512 512" width="512" xmlns="http://www.w3.org/2000/svg"><g><circle cx="256" cy="256" fill="#fb7c82" r="256"/><path d="m172.184 256.277 17.915 17.915-88.531 88.531 149.21 149.21c1.738.035 3.476.066 5.222.066 141.385 0 256-114.615 256-256 0-1.993-.03-3.979-.075-5.961l-166.752-166.75z" fill="#fa455c"/><path d="m345.173 83.288c-16.305.646-32.696 5.142-47.809 13.867-49.761 28.729-66.81 92.358-38.081 142.119l42.969-9.394 28.86-32.077c-21.884-37.905-14.927-84.546 14.061-114.515z" fill="#f9cd16"/><path d="m401.402 277.354c15.113-8.725 27.201-20.673 35.913-34.47-40.448 10.12-84.319-7.176-106.204-45.081l-71.829 41.47c28.731 49.761 92.36 66.811 142.12 38.081z" fill="#fa0"/><path d="m80.868 312.538c0-37.327 28.731-67.939 65.284-70.939-.385-2.998-.585-6.055-.585-9.158 0-39.314 31.87-71.185 71.185-71.185 10.165 0 19.829 2.136 28.576 5.975l17.404 108.246-17.404 108.246h-93.275c-39.315 0-71.185-31.87-71.185-71.185z" fill="#fff"/><path d="m287.179 222.051c5.002-1.551 10.319-2.388 15.832-2.388 29.486 0 53.389 23.903 53.389 53.389 0 1.312-.064 2.609-.157 3.898.053 0 .104-.004.157-.004 29.486 0 53.389 23.903 53.389 53.389s-23.903 53.389-53.389 53.389h-111.072v-216.493c22.045 9.676 38.25 30.2 41.851 54.82z" fill="#e9edf5"/></g></svg>