<svg id="Capa_1" enable-background="new 0 0 512 512" height="512" viewBox="0 0 512 512" width="512" xmlns="http://www.w3.org/2000/svg"><g><circle cx="256" cy="256" fill="#f9cd16" r="256"/><path d="m365.864 182.318-12.016 12.016-74.56-74.56-142.921 142.921 9.002 9.001-60.051 60.051 180.062 180.064c115.021-4.145 210.698-84.154 238.472-191.505z" fill="#fa0"/><path d="m61.118 272.968c0-43.778 33.696-79.681 76.566-83.199-.452-3.517-.686-7.101-.686-10.741 0-46.108 37.378-83.487 83.487-83.487 11.922 0 23.256 2.505 33.515 7.008l20.412 126.953-20.412 126.953h-109.395c-46.109 0-83.487-37.378-83.487-83.487z" fill="#fff"/><path d="m303.084 166.842c5.867-1.819 12.103-2.8 18.568-2.8 34.581 0 62.615 28.034 62.615 62.615 0 1.539-.075 3.06-.184 4.572.062 0 .122-.005.184-.005 34.581 0 62.615 28.034 62.615 62.615s-28.034 62.615-62.615 62.615h-130.267v-253.905c25.856 11.348 44.861 35.418 49.084 64.293z" fill="#e9edf5"/></g></svg>