<svg id="Capa_1" enable-background="new 0 0 512 512" height="512" viewBox="0 0 512 512" width="512" xmlns="http://www.w3.org/2000/svg"><g><circle cx="256" cy="256" fill="#f9cd16" r="256"/><path d="m405.077 174.621-7.31 7.31-45.205-45.205-76.571 76.571-36.094-36.094-54.943 54.943 7.223 7.223-107.148 107.147 165.414 165.414c1.849.039 3.699.07 5.557.07 133.16 0 242.558-101.672 254.837-231.619z" fill="#fa0"/><path d="m65.632 299.503c0-34.96 26.909-63.632 61.145-66.442-.361-2.808-.548-5.671-.548-8.577 0-36.822 29.85-66.672 66.672-66.672 9.521 0 18.572 2 26.765 5.596l16.301 101.383-16.301 101.383h-87.362c-36.822.001-66.672-29.849-66.672-66.671z" fill="#fff"/><path d="m219.666 229.772c0-26.635 20.501-48.478 46.584-50.619-.275-2.14-.417-4.32-.417-6.535 0-28.053 22.741-50.794 50.794-50.794 7.253 0 14.149 1.524 20.391 4.263l12.419 77.239-12.419 77.239h-66.558c-28.053.001-50.794-22.74-50.794-50.793z" fill="#7883ee"/><path d="m366.88 165.204c3.569-1.107 7.363-1.704 11.297-1.704 21.04 0 38.096 17.056 38.096 38.096 0 .937-.046 1.862-.112 2.782.038 0 .074-.003.112-.003 21.04 0 38.096 17.056 38.096 38.096s-17.056 38.096-38.096 38.096h-79.256v-154.48c15.731 6.904 27.294 21.549 29.863 39.117z" fill="#4652ca"/><path d="m258.864 214.753c4.685-1.453 9.665-2.236 14.828-2.236 27.616 0 50.004 22.387 50.004 50.004 0 1.229-.06 2.444-.147 3.651.049 0 .098-.004.147-.004 27.616 0 50.004 22.387 50.004 50.004 0 27.616-22.387 50.004-50.004 50.004h-104.03v-202.767c20.648 9.062 35.825 28.284 39.198 51.344z" fill="#e9edf5"/></g></svg>