<svg id="Capa_1" enable-background="new 0 0 512 512" height="512" viewBox="0 0 512 512" width="512" xmlns="http://www.w3.org/2000/svg"><g><path d="m512 256.001c-5.747 341.36-506.302 341.307-512-.011 5.747-341.349 506.302-341.295 512 .011z" fill="#fb7c82"/><path d="m405.365 157.831-68.891-68.891-6.804 32.684 1.459 1.459-5.744 5.744-69.388-69.387-9.228 30.261 6.458 6.458-8.03 8.03 62.934 62.934-27.212 27.212-105.394-105.395-7.42 27.895 6.737 6.737-10.116 10.116 52.446 52.446-38.503 38.503-73.612-73.612-10.434 29.055 7.671 7.671-8.031 8.031 56.631 56.631-29.542 29.542 62.547 62.547-19.172 19.172 82.579 82.579-6.306 6.306 56.377 56.377c111.379-16.625 212.028-100.905 214.621-252.855l-105.055-105.055z" fill="#fa455c"/><path d="m246 259.84v151.751h9.998l5.001-75.875-5.001-75.876z" fill="#fff"/><path d="m255.998 259.84h10.002v151.751h-10.002z" fill="#e9edf5"/><path d="m241 402.56v50h14.998l7.501-25-7.501-25z" fill="#7883ee"/><path d="m255.998 402.56h15.002v50h-15.002z" fill="#4652ca"/><path d="m256.002 146.198c-74.364 0-134.649 60.781-134.649 135.758 13.311-12.814 77.249-13.166 89.766 0 0 0 .008-.006.009-.007-.009.007 44.874-135.751 44.874-135.751z" fill="#6cb1f8"/><path d="m266.689 217.279-10.687-71.081s-50.657 27.37-44.874 135.752c.196-.143 14.137-10.205 44.874-10.205z" fill="#92ccf7"/><path d="m255.998 146.198c74.364 0 134.649 60.781 134.649 135.758-13.311-12.814-77.249-13.166-89.766 0 0 0-.008-.006-.009-.007.009.007-44.874-135.751-44.874-135.751z" fill="#5298f3"/><path d="m255.998 146.198s50.657 27.37 44.874 135.752c-.196-.143-14.137-10.205-44.874-10.205z" fill="#6cb1f8"/><path d="m189.139 116.159-13.61-27.219-13.609 27.219c-5.058 10.117 2.298 22.02 13.609 22.02 11.311.001 18.668-11.903 13.61-22.02z" fill="#92ccf7"/><path d="m350.08 116.159-13.609-27.219-13.609 27.219c-5.058 10.117 2.298 22.02 13.609 22.02 11.311.001 18.668-11.903 13.609-22.02z" fill="#6cb1f8"/><path d="m189.139 346.144-13.609-27.219-13.609 27.219c-5.058 10.117 2.298 22.02 13.609 22.02 11.31.001 18.667-11.903 13.609-22.02z" fill="#92ccf7"/><path d="m350.08 346.144-13.609-27.219-13.609 27.219c-5.058 10.117 2.298 22.02 13.609 22.02 11.311.001 18.668-11.903 13.609-22.02z" fill="#6cb1f8"/><path d="m118.668 178.245-13.609-27.219-13.609 27.219c-5.058 10.117 2.298 22.02 13.609 22.02 11.31 0 18.667-11.903 13.609-22.02z" fill="#92ccf7"/><path d="m420.551 178.245-13.609-27.219-13.609 27.219c-5.058 10.117 2.298 22.02 13.609 22.02 11.311 0 18.668-11.903 13.609-22.02z" fill="#6cb1f8"/><path d="m242.391 86.659c-5.058 10.117 2.298 22.02 13.609 22.02l6.728-24.62-6.728-24.619z" fill="#92ccf7"/><path d="m269.609 86.659-13.609-27.219v49.239c11.311 0 18.668-11.903 13.609-22.02z" fill="#6cb1f8"/></g></svg>