<svg id="Capa_1" enable-background="new 0 0 512 512" height="512" viewBox="0 0 512 512" width="512" xmlns="http://www.w3.org/2000/svg"><g><circle cx="256" cy="256" fill="#fb7c82" r="256"/><path d="m269.921 511.62c120.929-6.482 219.551-96.887 238.696-214.018l-144.122-144.123-11.718 11.718-72.713-72.713-139.38 139.38 8.779 8.778-58.563 58.564 86.907 86.907-16.696 16.696z" fill="#fa455c"/><path d="m67.3 241.883c0-42.693 32.861-77.706 74.669-81.138-.44-3.429-.669-6.925-.669-10.474 0-44.966 36.452-81.418 81.418-81.418 11.626 0 22.68 2.443 32.684 6.834l19.906 123.807-19.906 123.807h-106.684c-44.966 0-81.418-36.452-81.418-81.418z" fill="#fff"/><path d="m303.27 138.388c5.722-1.774 11.803-2.731 18.107-2.731 33.725 0 61.064 27.339 61.064 61.064 0 1.501-.073 2.984-.18 4.459.06 0 .119-.005.18-.005 33.724 0 61.064 27.339 61.064 61.064s-27.339 61.064-61.064 61.064h-127.038v-247.616c25.215 11.067 43.749 34.541 47.867 62.701z" fill="#e9edf5"/><path d="m239.79 382.694c-5.803 11.606 2.637 25.262 15.613 25.262l7.718-28.244-7.718-28.244z" fill="#92ccf7"/><path d="m271.015 382.694-15.613-31.226v56.488c12.977 0 21.417-13.656 15.613-25.262z" fill="#6cb1f8"/><path d="m189.112 382.694-15.613-31.226-15.613 31.226c-5.803 11.606 2.637 25.262 15.613 25.262 12.976 0 21.416-13.656 15.613-25.262z" fill="#92ccf7"/><path d="m352.919 382.694-15.613-31.226-15.613 31.226c-5.803 11.606 2.637 25.262 15.613 25.262 12.976 0 21.416-13.656 15.613-25.262z" fill="#6cb1f8"/></g></svg>