<svg id="Capa_1" enable-background="new 0 0 512 512" height="512" viewBox="0 0 512 512" width="512" xmlns="http://www.w3.org/2000/svg"><g><circle cx="256" cy="256" fill="#7883ee" r="256"/><path d="m315.852 238.323-66.003-66.003-153.797 153.796 68.973 68.973-11.584 11.584 105.292 105.292c140.124-1.468 253.267-115.494 253.267-255.965 0-8.388-.416-16.678-1.205-24.86l-93.88-93.88z" fill="#4652ca"/><path d="m304.871 100.837-22.037 22.356-28.064 14.065-4.723 31.028-14.41 27.878 14.41 27.878 4.723 31.028 28.064 14.065 22.037 22.356 30.972-5.141 28.205-90.186-28.205-90.186z" fill="#fa0"/><path d="m388.852 269.135 28.064-14.065 4.723-31.028 14.411-27.878-14.411-27.878-4.723-31.028-28.064-14.065-22.036-22.356-30.973 5.141v180.372l30.973 5.141z" fill="#ff9500"/><path d="m265.699 196.164c0 38.74 31.405 70.144 70.144 70.144l20.383-70.144-20.383-70.144c-38.74-.001-70.144 31.404-70.144 70.144z" fill="#f9cd16"/><path d="m405.988 196.164c0-38.74-31.405-70.144-70.144-70.144v140.289c38.739-.001 70.144-31.405 70.144-70.145z" fill="#fa0"/><path d="m75.95 277.385c0-36.243 27.897-65.967 63.389-68.88-.374-2.911-.568-5.879-.568-8.892 0-38.173 30.945-69.119 69.119-69.119 9.87 0 19.254 2.074 27.747 5.801l16.899 105.104-16.899 105.104h-90.568c-38.173 0-69.119-30.945-69.119-69.118z" fill="#fff"/><path d="m276.273 189.524c4.857-1.506 10.02-2.318 15.372-2.318 28.63 0 51.839 23.209 51.839 51.839 0 1.274-.062 2.534-.152 3.785.051 0 .101-.004.152-.004 28.63 0 51.839 23.209 51.839 51.839s-23.209 51.839-51.839 51.839h-107.847v-210.209c21.406 9.395 37.14 29.323 40.636 53.229z" fill="#e9edf5"/><path d="m222.027 389.142c-5.058 10.117 2.298 22.02 13.609 22.02l6.728-24.62-6.728-24.62z" fill="#92ccf7"/><path d="m249.246 389.142-13.609-27.219v49.239c11.311.001 18.668-11.903 13.609-22.02z" fill="#6cb1f8"/><path d="m177.852 389.142-13.609-27.219-13.609 27.219c-5.058 10.117 2.298 22.02 13.609 22.02 11.311.001 18.668-11.903 13.609-22.02z" fill="#92ccf7"/><path d="m320.64 389.142-13.609-27.219-13.609 27.219c-5.058 10.117 2.298 22.02 13.609 22.02 11.311.001 18.668-11.903 13.609-22.02z" fill="#6cb1f8"/></g></svg>