<svg id="Capa_1" enable-background="new 0 0 512 512" height="512" viewBox="0 0 512 512" width="512" xmlns="http://www.w3.org/2000/svg"><g><circle cx="256" cy="256" fill="#fb7c82" r="256"/><path d="m228.407 200.054-3.617-3.617-129.21 129.209 69.443 69.443-11.582 11.582 105.294 105.294c140.123-1.469 253.265-115.495 253.265-255.965 0-1.993-.03-3.979-.075-5.961l-166.752-166.751z" fill="#fa455c"/><path d="m345.173 83.288c-16.305.646-32.696 5.142-47.809 13.867-49.761 28.729-66.81 92.358-38.081 142.119l42.969-9.394 28.86-32.077c-21.884-37.905-14.927-84.546 14.061-114.515z" fill="#f9cd16"/><path d="m401.402 277.354c15.113-8.725 27.201-20.673 35.913-34.47-40.448 10.12-84.319-7.176-106.204-45.081l-71.829 41.47c28.731 49.761 92.36 66.811 142.12 38.081z" fill="#fa0"/><path d="m75.95 277.385c0-36.243 27.897-65.967 63.389-68.88-.374-2.911-.568-5.879-.568-8.892 0-38.173 30.945-69.119 69.119-69.119 9.87 0 19.254 2.074 27.747 5.801l16.899 105.104-16.899 105.104h-90.568c-38.173 0-69.119-30.945-69.119-69.118z" fill="#7883ee"/><path d="m276.273 189.524c4.857-1.506 10.02-2.318 15.372-2.318 28.63 0 51.839 23.209 51.839 51.839 0 1.274-.062 2.534-.152 3.785.051 0 .101-.004.152-.004 28.63 0 51.839 23.209 51.839 51.839s-23.209 51.839-51.839 51.839h-107.847v-210.209c21.406 9.395 37.14 29.323 40.636 53.229z" fill="#4652ca"/><path d="m222.027 389.142c-5.058 10.117 2.298 22.02 13.609 22.02l6.728-24.62-6.728-24.62z" fill="#92ccf7"/><path d="m249.246 389.142-13.609-27.219v49.239c11.311.001 18.668-11.903 13.609-22.02z" fill="#6cb1f8"/><path d="m177.852 389.142-13.609-27.219-13.609 27.219c-5.058 10.117 2.298 22.02 13.609 22.02 11.311.001 18.668-11.903 13.609-22.02z" fill="#92ccf7"/><path d="m320.64 389.142-13.609-27.219-13.609 27.219c-5.058 10.117 2.298 22.02 13.609 22.02 11.311.001 18.668-11.903 13.609-22.02z" fill="#6cb1f8"/></g></svg>