<svg id="Capa_1" enable-background="new 0 0 512 512" height="512" viewBox="0 0 512 512" width="512" xmlns="http://www.w3.org/2000/svg"><g><circle cx="256" cy="256" fill="#fb7c82" r="256"/><path d="m295.735 508.926c110.539-17.226 197.646-105.177 213.621-216.125l-146.517-146.517-11.479 11.479-71.162-71.162-83.663 83.663 8.651 8.651-110.238 110.239 143.839 143.839-3.394 15.592z" fill="#fa455c"/><path d="m71.739 232.908c0-41.821 32.19-76.119 73.144-79.481-.431-3.359-.655-6.784-.655-10.261 0-44.048 35.708-79.755 79.755-79.755 11.389 0 22.217 2.393 32.017 6.694l35.89 121.279-35.89 91.538-61.829 29.742h-42.677c-44.048 0-79.755-35.708-79.755-79.756z" fill="#fff"/><path d="m302.89 131.526c5.605-1.738 11.562-2.675 17.738-2.675 33.036 0 59.817 26.781 59.817 59.817 0 1.47-.072 2.923-.176 4.367.059 0 .117-.004.176-.004 33.036 0 59.817 26.781 59.817 59.817s-26.781 59.817-59.817 59.817h-62.706l-24.033 10.335-17.19-10.336-20.516-29.742v-212.816c24.7 10.841 42.856 33.835 46.89 61.42z" fill="#e9edf5"/><path d="m228.499 256-34.328 56.664h41.223v135.924l20.561-33.939 12.663-101.985-12.618-56.664z" fill="#f9cd16"/><path d="m310.616 256h-54.661v158.649l61.784-101.985h-41.223z" fill="#fa0"/></g></svg>