<svg id="Capa_1" enable-background="new 0 0 512 512" height="512" viewBox="0 0 512 512" width="512" xmlns="http://www.w3.org/2000/svg"><g><circle cx="256" cy="256" fill="#92ccf7" r="256"/><path d="m253.026 158.495-3.176-3.176-153.798 153.796 124.358 124.358-2.436 12.818 64.368 64.368c129.009-13.187 229.658-122.168 229.658-254.659 0-8.079-.392-16.065-1.124-23.952l-165.702-165.702z" fill="#6cb1f8"/><path d="m345.173 66.347c-16.305.646-32.696 5.142-47.809 13.867-49.761 28.729-66.81 92.358-38.081 142.119l42.969-9.394 28.86-32.077c-21.884-37.905-14.927-84.546 14.061-114.515z" fill="#f9cd16"/><path d="m401.402 260.413c15.113-8.725 27.201-20.673 35.913-34.47-40.448 10.12-84.319-7.176-106.204-45.081l-71.829 41.47c28.731 49.761 92.36 66.81 142.12 38.081z" fill="#fa0"/><path d="m75.95 260.384c0-36.243 27.897-65.967 63.389-68.88-.374-2.911-.568-5.879-.568-8.892 0-38.173 30.945-69.119 69.119-69.119 9.87 0 19.254 2.074 27.747 5.801l16.899 105.104-16.899 95.778-53.084 9.33-37.483-.004c-38.174 0-69.12-30.945-69.12-69.118z" fill="#7883ee"/><path d="m276.273 172.523c4.857-1.506 10.02-2.318 15.372-2.318 28.63 0 51.839 23.209 51.839 51.839 0 1.274-.062 2.534-.152 3.785.051 0 .101-.004.152-.004 28.63 0 51.839 23.209 51.839 51.839s-23.209 51.839-51.839 51.839l-54.763.004-16.78 5.376-18.638-5.376-17.666-9.095v-201.118c21.406 9.395 37.14 29.323 40.636 53.229z" fill="#4652ca"/><path d="m212.047 280.821-29.495 48.685h35.419v116.786l17.666-29.161 10.88-87.625-10.842-48.685z" fill="#f9cd16"/><path d="m282.601 280.821h-46.964v136.31l53.084-87.625h-35.418z" fill="#fa0"/></g></svg>