<svg id="Capa_1" enable-background="new 0 0 512 512" height="512" viewBox="0 0 512 512" width="512" xmlns="http://www.w3.org/2000/svg"><g><circle cx="256" cy="256" fill="#7883ee" r="256"/><path d="m379.583 138.887-30.146-30.146-10.903 10.903 7.676 7.677-5.214 5.214-36.333-36.335-7.56 3.403-33.603-33.603-10.903 10.903 10.188 10.188-10.188 10.188v75.544l8.471 8.471-5.478 5.478-78.172-78.172-10.903 10.903 10.018 10.018-10.018 10.018 9.421 9.421-27.849 27.391-9.683-9.683-9.367 9.367-9.367-9.367-10.903 10.903 79.266 79.266-3.123 3.123-7.363-7.363h-79.916l-10.364 10.363-10.364-10.364-10.903 10.902 33.486 33.486-2.93 7.722 37.686 37.686-5.434 5.434-9.137-9.137-10.903 10.903 29.82 29.82-11.636 16.241 116.019 116.019c4.316.217 8.659.328 13.029.328 141.385 0 256-114.615 256-256 0-4.37-.111-8.714-.328-13.03l-116.018-116.018z" fill="#4652ca"/><path d="m248.5 66v50.289l-30.556-30.48-10.594 10.619 41.15 41.047v40.55l-25.149-11.727-14.77 31.676-31.092-31.092-.072-58.282-15 .019.053 43.245-35.516-35.516-10.607 10.607 35.564 35.564-43.162.054.018 15 58.125-.072 28.668 28.668-26.076 9.491 11.954 32.843h-43.902l-41.207-41.106-10.594 10.62 30.561 30.486h-50.296v15h50.474l-30.537 30.613 10.619 10.594 41.104-41.207h40.364l-11.727 25.149 31.676 14.771-31.099 31.099-58.126.071.019 15 43.089-.053-35.51 35.51 10.607 10.607 35.714-35.714.054 43.318 15-.018-.073-58.281 28.519-28.519 9.491 26.075 32.843-11.954v44.13l-41.008 41.106 10.62 10.594 30.387-30.462v50.068h7.5l4.529-190-4.529-190zm-50.825 155.359 9.587-3.49 30.63 30.63h-40.493l-5.428-14.912-3.263-8.966zm11.586 70.773-14.383-6.707-8.647-4.032 4.032-8.646 4.312-9.247h43.318zm39.239 22.467-14.913 5.428-8.965 3.263-3.263-8.964-3.49-9.588 30.63-30.63v40.491zm0-76.706-28.632-28.632 6.707-14.383 4.032-8.647 8.647 4.032 9.247 4.312v43.318z" fill="#fff"/><path d="m263.5 395.556 30.712 30.636 10.594-10.619-41.306-41.204v-40.394l25.149 11.727 14.77-31.676 31.248 31.249.071 58.126 15-.019-.053-43.089 35.36 35.36 10.607-10.607-35.564-35.564 43.318-.054-.018-15-58.281.073-28.668-28.668 26.076-9.491-11.953-32.842h44.058l41.207 41.106 10.594-10.62-30.561-30.486h50.14v-15h-50.318l30.537-30.613-10.619-10.594-41.105 41.207h-40.52l11.727-25.149-31.676-14.771 31.099-31.099 58.282-.072-.019-15-43.245.053 35.51-35.51-10.607-10.607-35.557 35.557-.054-43.162-15 .018.072 58.125-28.675 28.675-9.491-26.075-32.841 11.955v-43.974l41.163-41.264-10.62-10.594-30.543 30.619v-50.225h-7.5v380h7.5zm50.825-104.915-9.587 3.489-30.63-30.63h40.493l5.428 14.912 3.263 8.966zm-11.586-70.773 14.383 6.707 8.647 4.032-4.032 8.646-4.312 9.247h-43.318zm-39.239-22.467 14.913-5.428 8.965-3.263 3.263 8.964 3.49 9.588-30.63 30.63v-40.491zm0 76.706 28.632 28.632-6.707 14.383-4.032 8.647-8.647-4.032-9.247-4.312v-43.318z" fill="#e9edf5"/></g></svg>