<svg id="Capa_1" enable-background="new 0 0 512 512" height="512" viewBox="0 0 512 512" width="512" xmlns="http://www.w3.org/2000/svg"><g><circle cx="256" cy="256" fill="#92ccf7" r="256"/><path d="m512 256c0-1.993-.03-3.979-.075-5.961l-166.752-166.751-116.766 116.766-3.617-3.617-129.21 129.209 58.328 58.328-17.557 2.569 13.912 13.912-5.74 5.81 105.661 105.66c1.934.043 3.872.074 5.817.074 141.384.001 255.999-114.614 255.999-255.999z" fill="#6cb1f8"/><path d="m345.173 83.288c-16.305.646-32.696 5.142-47.809 13.867-49.761 28.729-66.81 92.358-38.081 142.119l42.969-9.394 28.86-32.077c-21.884-37.905-14.927-84.546 14.061-114.515z" fill="#f9cd16"/><path d="m401.402 277.354c15.113-8.725 27.201-20.673 35.913-34.47-40.448 10.12-84.319-7.176-106.204-45.081l-71.829 41.47c28.731 49.761 92.36 66.811 142.12 38.081z" fill="#fa0"/><path d="m75.95 277.385c0-36.243 27.897-65.967 63.389-68.88-.374-2.911-.568-5.879-.568-8.892 0-38.173 30.945-69.119 69.119-69.119 9.87 0 19.254 2.074 27.747 5.801l16.899 105.104-16.899 105.104h-90.568c-38.173 0-69.119-30.945-69.119-69.118z" fill="#fff"/><path d="m276.273 189.524c4.857-1.506 10.02-2.318 15.372-2.318 28.63 0 51.839 23.209 51.839 51.839 0 1.274-.062 2.534-.152 3.785.051 0 .101-.004.152-.004 28.63 0 51.839 23.209 51.839 51.839s-23.209 51.839-51.839 51.839h-107.847v-210.209c21.406 9.395 37.14 29.323 40.636 53.229z" fill="#e9edf5"/><path d="m179.497 392.862 12.637-6.319-12.637-6.318 4.468-13.404-13.403 4.468-6.319-12.637-6.318 12.637-13.404-4.468 4.468 13.404-12.637 6.318 12.637 6.319-4.468 13.403 13.404-4.468 6.318 12.638 6.319-12.638 13.403 4.468z" fill="#fff"/><path d="m322.285 392.862 12.637-6.319-12.637-6.318 4.468-13.404-13.404 4.468-6.318-12.637-6.319 12.637-13.404-4.468 4.468 13.404-12.637 6.318 12.637 6.319-4.468 13.403 13.404-4.467 6.319 12.637 6.318-12.637 13.404 4.467z" fill="#e9edf5"/><path d="m229.318 371.289-13.403-4.468 4.467 13.404-12.637 6.318 12.637 6.319-4.468 13.403 13.404-4.467 6.319 12.637 6.715-27.892-6.715-27.891z" fill="#fff"/><path d="m241.955 401.798 13.404 4.467-4.468-13.403 12.637-6.319-12.637-6.318 4.468-13.404-13.404 4.468-6.318-12.637v55.783z" fill="#e9edf5"/></g></svg>