<svg id="Capa_1" enable-background="new 0 0 512 512" height="512" viewBox="0 0 512 512" width="512" xmlns="http://www.w3.org/2000/svg"><g><circle cx="256" cy="256" fill="#f9cd16" r="256"/><path d="m348.245 137.548-9.912 9.912-61.473-61.472-128.434 128.434 7.5 7.5-39.024 39.025 59.547 59.547-19.477 19.477-20.524-20.524-9.696 9.696-18.882-18.882-11.002 11.002 64.323 64.323-8.861 8.861-12.088-12.088-10.137 10.137-22.235-22.235-11.002 11.002 128.96 128.96c9.897 1.161 19.962 1.777 30.172 1.777 127.122 0 232.583-92.663 252.572-214.125z" fill="#fa0"/><path d="m96.867 212.382c0-36.118 27.8-65.739 63.169-68.642-.373-2.901-.566-5.859-.566-8.861 0-38.041 30.839-68.879 68.879-68.879 9.836 0 19.187 2.067 27.651 5.781l16.84 104.74-16.84 104.74h-90.254c-38.041 0-68.879-30.838-68.879-68.879z" fill="#fff"/><path d="m296.496 124.825c4.84-1.501 9.985-2.31 15.319-2.31 28.531 0 51.659 23.129 51.659 51.659 0 1.27-.062 2.525-.152 3.772.051 0 .101-.004.152-.004 28.531 0 51.659 23.129 51.659 51.659s-23.129 51.659-51.659 51.659h-107.474v-209.479c21.332 9.363 37.011 29.221 40.496 53.044z" fill="#e9edf5"/><path d="m224.167 301.261c-18.794 0-28.544 6.127-37.146 11.533-7.527 4.73-13.473 8.467-26.505 8.467-13.031 0-18.977-3.736-26.504-8.467-8.602-5.406-18.352-11.533-37.145-11.533v20c13.031 0 18.976 3.736 26.503 8.467 8.602 5.406 18.352 11.533 37.146 11.533s28.544-6.127 37.146-11.533c7.527-4.73 13.473-8.467 26.505-8.467s18.978 3.736 26.506 8.467c1.708 1.073 3.466 2.174 5.327 3.251l9.471-9.037-9.471-14.392c-7.512-4.348-16.762-8.289-31.833-8.289z" fill="#fff"/><path d="m324.969 329.728c7.528-4.73 13.475-8.467 26.508-8.467s18.979 3.736 26.508 8.467c8.603 5.406 18.354 11.533 37.148 11.533v-20c-13.033 0-18.979-3.736-26.508-8.467-8.603-5.406-18.354-11.533-37.148-11.533s-28.546 6.127-37.148 11.533c-7.528 4.73-13.475 8.467-26.508 8.467-13.032 0-18.979-3.736-26.506-8.467-1.704-1.071-3.459-2.169-5.315-3.244v23.428c7.509 4.346 16.758 8.282 31.821 8.282 18.794.001 28.545-6.126 37.148-11.532z" fill="#e9edf5"/><path d="m224.167 361.261c-18.794 0-28.544 6.127-37.146 11.533-7.527 4.73-13.473 8.467-26.505 8.467-13.031 0-18.977-3.736-26.504-8.467-8.602-5.406-18.352-11.533-37.145-11.533v20c13.031 0 18.976 3.736 26.503 8.467 8.602 5.406 18.352 11.533 37.146 11.533s28.544-6.127 37.146-11.533c7.527-4.73 13.473-8.467 26.505-8.467s18.978 3.736 26.506 8.467c1.708 1.073 3.466 2.174 5.327 3.251l9.471-8.331-9.471-15.098c-7.512-4.348-16.762-8.289-31.833-8.289z" fill="#fff"/><path d="m324.969 389.728c7.528-4.73 13.475-8.467 26.508-8.467s18.979 3.736 26.508 8.467c8.603 5.406 18.354 11.533 37.148 11.533v-20c-13.033 0-18.979-3.736-26.508-8.467-8.603-5.406-18.354-11.533-37.148-11.533s-28.546 6.127-37.148 11.533c-7.528 4.73-13.475 8.467-26.508 8.467-13.032 0-18.979-3.736-26.506-8.467-1.704-1.071-3.459-2.169-5.315-3.244v23.428c7.509 4.346 16.758 8.282 31.821 8.282 18.794.001 28.545-6.126 37.148-11.532z" fill="#e9edf5"/></g></svg>