<svg id="Capa_1" enable-background="new 0 0 512 512" height="512" viewBox="0 0 512 512" width="512" xmlns="http://www.w3.org/2000/svg"><g><circle cx="256" cy="256" fill="#f9cd16" r="256"/><path d="m411.345 173.462-18.843-18.843-12.235 12.235-21-21-14.559 14.559-12.529-12.53-14.382 14.382-3.177-3.177-14.647 14.647-10.412-10.412-14.588 14.588-28.706-28.706-12.118 12.118-15.765-15.765-14.118 14.118-9.294-9.294-14.716 14.718-3.882-3.882-14.166 14.166-11.599-11.599-14.223 14.223-32.382-32.382-15.592 15.592 63.977 63.977-16.002 16.002-32.382-32.382-15.592 15.592 63.976 63.976-16.002 16.001-32.382-32.382-15.592 15.592 63.961 63.961-15.986 15.986-32.382-32.382-15.592 15.592 161.167 161.167c2.134.052 4.274.081 6.421.081 141.385 0 256-114.615 256-256 0-2.157-.029-4.308-.082-6.453l-88.329-88.329z" fill="#fa0"/><path d="m222.476 140.155c-19.793 0-30.061 6.452-39.12 12.146-7.927 4.982-14.189 8.917-27.913 8.917s-19.985-3.935-27.912-8.917c-9.059-5.694-19.327-12.146-39.119-12.146v21.063c13.723 0 19.984 3.935 27.912 8.917 9.059 5.694 19.327 12.146 39.119 12.146s30.061-6.452 39.12-12.146c7.927-4.982 14.189-8.917 27.913-8.917 13.725 0 19.986 3.935 27.914 8.917 1.799 1.131 3.651 2.29 5.61 3.424l9.974-9.518-9.974-15.156c-7.91-4.579-17.653-8.73-33.524-8.73z" fill="#fff"/><path d="m328.633 170.135c7.928-4.982 14.191-8.917 27.916-8.917 13.726 0 19.988 3.935 27.916 8.917 9.06 5.694 19.329 12.146 39.122 12.146v-21.063c-13.726 0-19.988-3.935-27.916-8.917-9.06-5.694-19.329-12.146-39.122-12.146s-30.063 6.452-39.122 12.146c-7.928 4.982-14.191 8.917-27.916 8.917s-19.987-3.935-27.914-8.917c-1.795-1.128-3.642-2.285-5.597-3.416v24.673c7.908 4.577 17.648 8.722 33.511 8.722 19.794.001 30.063-6.452 39.122-12.145z" fill="#e9edf5"/><path d="m222.476 203.343c-19.793 0-30.061 6.452-39.12 12.146-7.927 4.982-14.189 8.917-27.913 8.917s-19.985-3.935-27.912-8.917c-9.059-5.693-19.327-12.146-39.119-12.146v21.063c13.723 0 19.984 3.935 27.912 8.917 9.059 5.693 19.327 12.146 39.119 12.146s30.061-6.452 39.12-12.146c7.927-4.982 14.189-8.917 27.913-8.917 13.725 0 19.986 3.935 27.914 8.917 1.799 1.131 3.651 2.29 5.61 3.424l9.974-8.774-9.974-15.9c-7.91-4.579-17.653-8.73-33.524-8.73z" fill="#fff"/><path d="m328.633 233.323c7.928-4.982 14.191-8.917 27.916-8.917 13.726 0 19.988 3.935 27.916 8.917 9.06 5.693 19.329 12.146 39.122 12.146v-21.063c-13.726 0-19.988-3.935-27.916-8.917-9.06-5.693-19.329-12.146-39.122-12.146s-30.063 6.452-39.122 12.146c-7.928 4.982-14.191 8.917-27.916 8.917s-19.987-3.935-27.914-8.917c-1.795-1.128-3.642-2.285-5.597-3.416v24.673c7.908 4.577 17.648 8.722 33.511 8.722 19.794.001 30.063-6.452 39.122-12.145z" fill="#e9edf5"/><path d="m222.476 266.531c-19.793 0-30.061 6.452-39.12 12.146-7.927 4.982-14.189 8.917-27.913 8.917s-19.985-3.935-27.912-8.917c-9.059-5.694-19.327-12.146-39.119-12.146v21.063c13.723 0 19.984 3.935 27.912 8.917 9.059 5.694 19.327 12.146 39.119 12.146s30.061-6.452 39.12-12.146c7.927-4.982 14.189-8.917 27.913-8.917 13.725 0 19.986 3.935 27.914 8.917 1.799 1.131 3.651 2.29 5.61 3.424l9.974-9.518-9.974-15.156c-7.91-4.579-17.653-8.73-33.524-8.73z" fill="#fff"/><path d="m328.633 296.511c7.928-4.982 14.191-8.917 27.916-8.917 13.726 0 19.988 3.935 27.916 8.917 9.06 5.694 19.329 12.146 39.122 12.146v-21.063c-13.726 0-19.988-3.935-27.916-8.917-9.06-5.694-19.329-12.146-39.122-12.146s-30.063 6.452-39.122 12.146c-7.928 4.982-14.191 8.917-27.916 8.917s-19.987-3.935-27.914-8.917c-1.795-1.128-3.642-2.285-5.597-3.416v24.673c7.908 4.577 17.648 8.722 33.511 8.722 19.794.001 30.063-6.452 39.122-12.145z" fill="#e9edf5"/><path d="m222.476 329.719c-19.793 0-30.061 6.453-39.12 12.146-7.927 4.982-14.189 8.917-27.913 8.917s-19.985-3.935-27.912-8.917c-9.059-5.693-19.327-12.146-39.119-12.146v21.063c13.723 0 19.984 3.935 27.912 8.917 9.059 5.693 19.327 12.146 39.119 12.146s30.061-6.453 39.12-12.146c7.927-4.982 14.189-8.917 27.913-8.917 13.725 0 19.986 3.935 27.914 8.917 1.799 1.131 3.651 2.29 5.61 3.424l9.974-8.774-9.974-15.9c-7.91-4.58-17.653-8.73-33.524-8.73z" fill="#fff"/><path d="m328.633 359.699c7.928-4.982 14.191-8.917 27.916-8.917 13.726 0 19.988 3.935 27.916 8.917 9.06 5.693 19.329 12.146 39.122 12.146v-21.063c-13.726 0-19.988-3.935-27.916-8.917-9.06-5.693-19.329-12.146-39.122-12.146s-30.063 6.453-39.122 12.146c-7.928 4.982-14.191 8.917-27.916 8.917s-19.987-3.935-27.914-8.917c-1.795-1.128-3.642-2.285-5.597-3.416v24.673c7.908 4.577 17.648 8.722 33.511 8.722 19.794.001 30.063-6.452 39.122-12.145z" fill="#e9edf5"/></g></svg>